<?xml version="1.0" encoding="UTF-8"?>
<svg version="1.1" xmlns="http://www.w3.org/2000/svg" width="500" height="500">
<path d="M0 0 C45.0337324 41.13930585 70.2586635 95.94984873 73.1875 156.8125 C75.2069153 203.07546866 60.84569833 251.10538135 34.1875 288.8125 C33.43855469 289.8746875 32.68960937 290.936875 31.91796875 292.03125 C18.63839 310.21589837 3.28209983 326.40474832 -14.8125 339.8125 C-15.93230911 340.66273745 -17.0521009 341.5129977 -18.171875 342.36328125 C-27.20515746 349.11829846 -36.80999428 354.6240792 -46.8125 359.8125 C-47.93567627 360.39862061 -47.93567627 360.39862061 -49.08154297 360.99658203 C-98.54775143 386.48371171 -158.7192726 391.1774042 -211.73583984 374.51757812 C-236.89720592 366.38777835 -259.7889377 354.8932185 -280.8125 338.8125 C-281.59367187 338.2246875 -282.37484375 337.636875 -283.1796875 337.03125 C-311.42895031 315.17280402 -332.76719688 287.06949342 -347.8125 254.8125 C-348.33328125 253.71164062 -348.8540625 252.61078125 -349.390625 251.4765625 C-355.50634692 237.92541024 -360.0055726 223.52740164 -363.125 209 C-363.34567139 207.98256714 -363.34567139 207.98256714 -363.57080078 206.94458008 C-366.40206602 192.77666392 -367.18981157 178.59660422 -367.125 164.1875 C-367.12350952 163.36166412 -367.12201904 162.53582825 -367.1204834 161.68496704 C-367.07695417 148.21218205 -366.35051023 135.07422482 -363.8125 121.8125 C-363.67859863 121.08514648 -363.54469727 120.35779297 -363.40673828 119.60839844 C-357.26662356 87.35232908 -342.85111497 56.7252204 -322.8125 30.8125 C-322.20277344 30.01070313 -321.59304688 29.20890625 -320.96484375 28.3828125 C-315.73962422 21.66620587 -310.02354293 15.43348404 -304.17871094 9.2578125 C-303.0308849 8.04352906 -301.89313815 6.81972903 -300.7578125 5.59375 C-295.18535973 -0.24177994 -288.81666651 -5.04655704 -282.42675781 -9.94042969 C-281.05933925 -10.99680809 -279.71101775 -12.07783549 -278.3671875 -13.1640625 C-272.22518544 -18.12752542 -265.60721383 -22.18455526 -258.8125 -26.1875 C-258.20519043 -26.55133789 -257.59788086 -26.91517578 -256.97216797 -27.29003906 C-233.53016757 -41.28834903 -207.7181114 -49.81441165 -180.8125 -54.1875 C-180.12043457 -54.30464355 -179.42836914 -54.42178711 -178.71533203 -54.54248047 C-114.40464895 -64.98423914 -48.2267055 -42.57574322 0 0 Z M-272.8125 98.8125 C-273.70453125 99.50859375 -274.5965625 100.2046875 -275.515625 100.921875 C-292.35083198 115.00415505 -302.52189003 135.29665946 -304.46899414 157.01245117 C-305.99429152 178.2782953 -300.15211991 198.72069583 -286.1015625 215.0390625 C-283.878699 217.52854826 -281.6043454 219.9639242 -279.26049805 222.34057617 C-278.22782395 223.39031351 -277.20995286 224.45469922 -276.20239258 225.52856445 C-272.05902862 229.85916583 -267.75396241 233.16369167 -262.625 236.25 C-261.47173218 236.94887329 -261.47173218 236.94887329 -260.29516602 237.66186523 C-248.80571417 244.40072623 -236.78438213 248.92985953 -223.8125 251.8125 C-223.3175 264.1875 -223.3175 264.1875 -222.8125 276.8125 C-216.15797968 273.6084717 -209.74487429 270.26741716 -203.4375 266.4375 C-202.81157959 266.05787109 -202.18565918 265.67824219 -201.54077148 265.28710938 C-200.26828489 264.51466198 -198.99590539 263.74203812 -197.72363281 262.96923828 C-194.60103938 261.07924752 -191.46483526 259.2149275 -188.3125 257.375 C-186.68828125 256.41787109 -186.68828125 256.41787109 -185.03125 255.44140625 C-180.63086756 253.21451368 -176.18309812 252.14452779 -171.41015625 250.98828125 C-150.7927659 245.95353731 -133.31335665 236.28674572 -117.8125 221.8125 C-116.97589844 221.03261719 -116.13929688 220.25273437 -115.27734375 219.44921875 C-100.26579083 204.11996101 -93.55133909 183.41997314 -93.5637207 162.29199219 C-93.9302696 139.09656715 -104.08512777 119.36524071 -120.35595703 103.21826172 C-143.23333509 81.13848584 -173.54548111 73.32979919 -204.55859375 73.6640625 C-229.82125084 74.21768998 -253.11988 83.15421956 -272.8125 98.8125 Z M-125.8125 87.8125 C-122.78550057 90.89493898 -119.69731739 93.83841267 -116.46166992 96.70507812 C-110.90546528 101.65341991 -106.05620265 106.66281675 -101.8125 112.8125 C-101.24144531 113.6065625 -100.67039062 114.400625 -100.08203125 115.21875 C-96.36356405 120.66921847 -93.54355139 126.31001926 -91 132.375 C-90.70996094 133.05884766 -90.41992188 133.74269531 -90.12109375 134.44726562 C-82.99004561 152.1571564 -83.53795796 173.94966313 -89.8125 191.8125 C-90.43125 193.58947266 -90.43125 193.58947266 -91.0625 195.40234375 C-97.73851382 212.566527 -110.78085016 228.27178752 -125.8125 238.8125 C-122.43601567 241.06348955 -120.03253657 241.54194438 -116.0625 242.3125 C-115.39347656 242.44865723 -114.72445312 242.58481445 -114.03515625 242.72509766 C-110.75196146 243.36803097 -107.64748706 243.82093399 -104.296875 243.9921875 C-91.89995238 244.68708227 -82.60448902 251.01309781 -72.25341797 257.42382812 C-69.46695614 259.08248985 -69.46695614 259.08248985 -64.8125 260.8125 C-64.8125 254.2125 -64.8125 247.6125 -64.8125 240.8125 C-60.8525 239.8225 -60.8525 239.8225 -56.8125 238.8125 C-33.99725863 230.95450699 -15.11111345 215.61772611 -4.4753418 193.83935547 C3.47706959 176.76264062 4.41396278 156.88511477 -2 139.125 C-11.22015328 117.19017469 -28.09279387 100.3456752 -50 91.125 C-50.91837646 90.73634766 -51.83675293 90.34769531 -52.78295898 89.94726562 C-75.10319754 80.76658416 -102.93523816 79.56348732 -125.8125 87.8125 Z " fill="#3FB6AC" transform="translate(398.8125,84.1875)"/>
<path d="M0 0 C1.86472487 0.20903131 3.72994065 0.41485039 5.59765625 0.59521484 C20.3927594 2.04667448 33.61813563 6.10906378 46.46875 13.65625 C48.87697979 14.99159543 48.87697979 14.99159543 51.01708984 15.81176758 C56.93370424 18.20809112 61.07947522 21.23946477 65.625 25.6875 C66.27597656 26.31180908 66.92695313 26.93611816 67.59765625 27.5793457 C72.212596 32.07067099 76.39005499 36.6522889 80 42 C80.85078125 43.18529297 80.85078125 43.18529297 81.71875 44.39453125 C85.4458882 49.84628822 88.26676489 55.4923123 90.8125 61.5625 C91.10253906 62.24634766 91.39257812 62.93019531 91.69140625 63.63476562 C100.0950395 84.50510951 97.36572143 108.40475694 89 128.75 C87.1942743 132.96990246 85.54593337 136.03582133 82 139 C81.01 139.33 80.02 139.66 79 140 C78.71125 140.94875 78.4225 141.8975 78.125 142.875 C76.71358746 146.7955904 75.59883407 147.04411192 72 149 C68.57505727 151.77808476 65.22432452 154.65816219 62.25 157.91796875 C59.151747 160.78492855 55.7068644 162.76968183 52.0625 164.875 C50.93884033 165.52819214 50.93884033 165.52819214 49.79248047 166.19458008 C36.62308478 173.74815117 36.62308478 173.74815117 30 176 C29.01 175.67 28.02 175.34 27 175 C31.40074668 172.17687949 35.80569382 169.55180549 40.4375 167.125 C45.76868401 164.23911113 50.38133267 160.9130376 55 157 C55.825 156.3090625 56.65 155.618125 57.5 154.90625 C74.11627624 140.51898643 83.4197892 122.77505001 86 101 C87.30122137 77.80322665 81.27225609 56.69018696 65.76635742 38.91845703 C46.95110804 18.21592696 19.94898362 5.5170145 -8 4 C-13.37613711 3.891226 -18.7481665 3.90477467 -24.125 3.9375 C-25.57291511 3.94252748 -27.02083192 3.94708817 -28.46875 3.95117188 C-31.97920259 3.96207295 -35.48959007 3.97926798 -39 4 C-39 3.67 -39 3.34 -39 3 C-30.53788638 0.48827723 -22.95592129 -0.29364003 -14.18212891 -0.06445312 C-9.37503312 0.05856102 -4.48189074 -1.49396358 0 0 Z " fill="#3A9B8D" transform="translate(218,155)"/>
<path d="M0 0 C0.94238525 0.20447754 1.88477051 0.40895508 2.85571289 0.61962891 C9.1748487 2.09370396 15.04925045 4.17590491 21 6.75 C22.45792969 7.37648437 22.45792969 7.37648437 23.9453125 8.015625 C25.02425781 8.50289062 25.02425781 8.50289062 26.125 9 C26.87007813 9.33515625 27.61515625 9.6703125 28.3828125 10.015625 C28.91648437 10.25796875 29.45015625 10.5003125 30 10.75 C30 11.41 30 12.07 30 12.75 C30.72574219 13.018125 31.45148438 13.28625 32.19921875 13.5625 C34.96864024 14.73670381 37.30919434 16.0894324 39.8125 17.75 C40.60269531 18.265625 41.39289063 18.78125 42.20703125 19.3125 C42.79871094 19.786875 43.39039063 20.26125 44 20.75 C44 21.41 44 22.07 44 22.75 C44.66 22.75 45.32 22.75 46 22.75 C50.76744186 27.05232558 50.76744186 27.05232558 52 30.75 C52.66 30.75 53.32 30.75 54 30.75 C67.42192463 44.74666699 72.3938981 64.93037247 72.30249023 83.81835938 C72.02405696 94.64488107 68.3854253 103.97379499 64 113.75 C63.34 113.75 62.68 113.75 62 113.75 C61.731875 114.884375 61.46375 116.01875 61.1875 117.1875 C60.795625 118.363125 60.40375 119.53875 60 120.75 C58.515 121.245 58.515 121.245 57 121.75 C56.28675737 123.05901 55.62546661 124.39685044 55 125.75 C50.39180249 131.82618287 44.78269394 136.82481581 39 141.75 C38.175 142.4925 37.35 143.235 36.5 144 C33.6194953 146.01635329 30.70731711 147.31254325 27.47265625 148.66796875 C24.00059047 150.18734035 20.68945438 151.99036135 17.359375 153.796875 C14.73699635 154.85624651 12.80185354 154.92884172 10 154.75 C13.15827913 152.20815608 16.44628235 150.44409369 20.0625 148.625 C26.74825219 145.06826988 32.34880347 140.80873238 38 135.75 C38.63421875 135.20988281 39.2684375 134.66976562 39.921875 134.11328125 C54.30782099 121.01415153 60.93958426 101.63269889 61.9609375 82.71875 C62.15415878 63.08746837 54.77180193 45.28916001 41.3203125 31.0625 C32.16504943 21.93806273 22.75444831 15.08882905 10.8125 10.0625 C9.89412354 9.67384766 8.97574707 9.28519531 8.02954102 8.88476562 C0.76446668 5.89652098 -6.18630291 3.80430717 -14 2.75 C-15.39412109 2.55857422 -15.39412109 2.55857422 -16.81640625 2.36328125 C-24.29958902 1.56188337 -31.80833452 1.70221798 -39.32275391 1.87426758 C-40.57451416 1.89203247 -40.57451416 1.89203247 -41.8515625 1.91015625 C-42.60260254 1.92699463 -43.35364258 1.94383301 -44.12744141 1.96118164 C-46 1.75 -46 1.75 -48 -0.25 C-47.3709375 -0.31058594 -46.741875 -0.37117187 -46.09375 -0.43359375 C-45.2378125 -0.51738281 -44.381875 -0.60117188 -43.5 -0.6875 C-42.6646875 -0.76871094 -41.829375 -0.84992188 -40.96875 -0.93359375 C-38.69536829 -1.17588838 -36.42637811 -1.45970953 -34.16015625 -1.76171875 C-22.45880361 -3.22197929 -11.50519012 -2.49954799 0 0 Z " fill="#379C8F" transform="translate(338,166.25)"/>
<path d="M0 0 C3.64331077 1.61924923 6.20425519 3.40851039 8 7 C8.58377585 11.26236343 8.44772276 14.85581962 6.875 18.875 C4.41429239 21.66380195 2.53433061 22.7996613 -1 24 C-5.25641192 24.20864764 -8.23118628 23.46797357 -11.875 21.25 C-14.65896446 18.30227292 -15.92449346 16.18524821 -16.06640625 12.078125 C-15.8132602 7.99710378 -15.25017796 6.30149652 -12.5625 3.0625 C-8.47109405 -0.23058283 -5.1574957 -0.55542261 0 0 Z " fill="#42B4AB" transform="translate(203,267)"/>
<path d="M0 0 C3.64331077 1.61924923 6.20425519 3.40851039 8 7 C8.58377585 11.26236343 8.44772276 14.85581962 6.875 18.875 C4.41429239 21.66380195 2.53433061 22.7996613 -1 24 C-5.25641192 24.20864764 -8.23118628 23.46797357 -11.875 21.25 C-14.65896446 18.30227292 -15.92449346 16.18524821 -16.06640625 12.078125 C-15.8132602 7.99710378 -15.25017796 6.30149652 -12.5625 3.0625 C-8.47109405 -0.23058283 -5.1574957 -0.55542261 0 0 Z " fill="#3FB5AC" transform="translate(251,267)"/>
<path d="M0 0 C3.64331077 1.61924923 6.20425519 3.40851039 8 7 C8.66298964 10.81765466 8.87514728 14.35736245 7.015625 17.84765625 C4.78286601 20.65238746 2.49384691 23.10158222 -1 24 C-5.93276254 23.92170218 -8.00861397 23.7974192 -11.875 20.6875 C-16.0266099 15.43693454 -16.0266099 15.43693454 -15.9375 10.625 C-14.76861104 6.10529603 -13.23428701 4.31317206 -10 1 C-6.80657621 -0.59671189 -3.47454369 -0.37418163 0 0 Z " fill="#40B5AB" transform="translate(155,267)"/>
<path d="M0 0 C-1.32 0.33 -2.64 0.66 -4 1 C-4 7.93 -4 14.86 -4 22 C-9 21 -9 21 -13 19 C-13 13.72 -13 8.44 -13 3 C-2.25 -1.125 -2.25 -1.125 0 0 Z " fill="#339D8F" transform="translate(347,322)"/>
<path d="M0 0 C0.66 0 1.32 0 2 0 C4.04169485 2.90548882 5 4.40142046 5 8 C5.9590625 8.1546875 5.9590625 8.1546875 6.9375 8.3125 C7.9584375 8.6528125 7.9584375 8.6528125 9 9 C9.33 9.99 9.66 10.98 10 12 C10.66 12.66 11.32 13.32 12 14 C12.33 14.99 12.66 15.98 13 17 C13.99 17 14.98 17 16 17 C18.41685712 21.22949995 19.34833144 24.12335991 19 29 C17.68 29.33 16.36 29.66 15 30 C14.731875 29.38125 14.46375 28.7625 14.1875 28.125 C13.04443152 25.7004767 13.04443152 25.7004767 10 24 C9.26953125 21.8359375 9.26953125 21.8359375 8.8125 19.375 C8.65394531 18.55773437 8.49539063 17.74046875 8.33203125 16.8984375 C8.22246094 16.27195313 8.11289062 15.64546875 8 15 C7.01 15 6.02 15 5 15 C2 10.77777778 2 10.77777778 2 8 C1.34 8 0.68 8 0 8 C-1.125 5.6875 -1.125 5.6875 -2 3 C-1.34 2.01 -0.68 1.02 0 0 Z " fill="#359C8E" transform="translate(288,189)"/>
<path d="M0 0 C-1.07378906 0.53109375 -2.14757812 1.0621875 -3.25390625 1.609375 C-4.69015842 2.32280745 -6.12635328 3.03635529 -7.5625 3.75 C-8.26697266 4.09804688 -8.97144531 4.44609375 -9.69726562 4.8046875 C-13.16376854 6.52995162 -16.56387665 8.30253364 -19.90234375 10.265625 C-23 12 -23 12 -25 12 C-25 12.66 -25 13.32 -25 14 C-28 16 -28 16 -32 16 C-32 16.66 -32 17.32 -32 18 C-37.75 21 -37.75 21 -40 21 C-40 21.66 -40 22.32 -40 23 C-42.3125 23.625 -42.3125 23.625 -45 24 C-45.99 23.34 -46.98 22.68 -48 22 C-46.86304688 21.3709375 -45.72609375 20.741875 -44.5546875 20.09375 C-37.10363962 15.96634266 -29.65565741 11.83345635 -22.25 7.625 C-20.64898437 6.71621094 -20.64898437 6.71621094 -19.015625 5.7890625 C-16.90320988 4.53584213 -14.83489686 3.20664737 -12.8046875 1.82421875 C-8.42257089 -1.02598802 -4.93901496 -1.38843553 0 0 Z " fill="#3D988D" transform="translate(228,336)"/>
<path d="M0 0 C0.66 0 1.32 0 2 0 C1.88506243 1.89646998 1.75760358 3.79218332 1.625 5.6875 C1.55539063 6.74324219 1.48578125 7.79898438 1.4140625 8.88671875 C1.01239911 11.90677269 0.25930981 14.24078054 -1 17 C-0.34 17.33 0.32 17.66 1 18 C0.34 18 -0.32 18 -1 18 C-1.0270043 19.45823212 -1.04639787 20.91660675 -1.0625 22.375 C-1.07410156 23.18710938 -1.08570313 23.99921875 -1.09765625 24.8359375 C-1.14466334 27.04937142 -1.14466334 27.04937142 0 29 C-0.66 29.33 -1.32 29.66 -2 30 C-2.0246519 34.82380802 -2.04283693 39.64757967 -2.05493164 44.47143555 C-2.05997174 46.11369464 -2.06680378 47.75594923 -2.07543945 49.39819336 C-2.08751926 51.75375479 -2.09323139 54.10925709 -2.09765625 56.46484375 C-2.10281754 57.20339096 -2.10797882 57.94193817 -2.11329651 58.7028656 C-2.1134925 60.46898088 -2.06194719 62.23497146 -2 64 C-1.67 64.33 -1.34 64.66 -1 65 C-0.92674832 67.86267567 -0.90761795 70.700719 -0.9375 73.5625 C-0.94201172 74.36880859 -0.94652344 75.17511719 -0.95117188 76.00585938 C-0.96299482 78.00393756 -0.98093086 80.00197783 -1 82 C-1.33 82 -1.66 82 -2 82 C-3.65887748 70.08304961 -4.36257078 58.40264133 -4.3125 46.375 C-4.31200653 45.5534845 -4.31151306 44.73196899 -4.31100464 43.88555908 C-4.28402535 29.15558024 -3.72012988 14.33102326 0 0 Z " fill="#4EA9A2" transform="translate(36,202)"/>
<path d="M0 0 C0.99 0.33 1.98 0.66 3 1 C-0.36550361 6.62337313 -4.24559952 11.71008419 -8.5625 16.625 C-9.02116455 17.16995117 -9.4798291 17.71490234 -9.95239258 18.27636719 C-11.31640625 19.7890625 -11.31640625 19.7890625 -14 22 C-16.83984375 21.8359375 -16.83984375 21.8359375 -19 21 C-18.34 20.67 -17.68 20.34 -17 20 C-16.72027344 19.40703125 -16.44054687 18.8140625 -16.15234375 18.203125 C-14.7056997 15.43733772 -12.89293577 13.81639625 -10.5625 11.75 C-9.78003906 11.04359375 -8.99757813 10.3371875 -8.19140625 9.609375 C-6 8 -6 8 -3 8 C-2.690625 6.865625 -2.38125 5.73125 -2.0625 4.5625 C-1 1 -1 1 0 0 Z " fill="#49B0A7" transform="translate(298,293)"/>
<path d="M0 0 C3.47865887 1.13970731 6.42044179 1.35024835 10.0703125 1.484375 C15.74792469 1.80915366 20.04647651 2.67841045 25.1953125 5.046875 C21.99809236 6.11261505 21.34867072 6.01222007 18.2578125 5.171875 C8.23779141 2.80292433 -1.89037381 2.93599468 -12.1262207 3.17138672 C-12.96113037 3.18314941 -13.79604004 3.19491211 -14.65625 3.20703125 C-15.40729004 3.22386963 -16.15833008 3.24070801 -16.93212891 3.25805664 C-18.8046875 3.046875 -18.8046875 3.046875 -20.8046875 1.046875 C-20.175625 0.98628906 -19.5465625 0.92570313 -18.8984375 0.86328125 C-18.0425 0.77949219 -17.1865625 0.69570312 -16.3046875 0.609375 C-15.39203125 0.52171875 -14.479375 0.4340625 -13.5390625 0.34375 C-11.19024293 0.0887353 -8.88531159 -0.26122108 -6.5546875 -0.640625 C-2.8046875 -0.953125 -2.8046875 -0.953125 0 0 Z " fill="#47948B" transform="translate(310.8046875,164.953125)"/>
<path d="M0 0 C5.28 0 10.56 0 16 0 C12.87122898 1.56438551 10.91328839 2.37075153 7.62109375 3.03515625 C6.78763428 3.2043457 5.9541748 3.37353516 5.09545898 3.54785156 C4.21833252 3.71768555 3.34120605 3.88751953 2.4375 4.0625 C1.53652588 4.2387793 0.63555176 4.41505859 -0.29272461 4.59667969 C-10.25987163 6.498608 -19.85714529 7.17656807 -30 7 C-29.67 6.34 -29.34 5.68 -29 5 C-28.43603516 4.97494385 -27.87207031 4.9498877 -27.29101562 4.92407227 C-24.69385118 4.80681699 -22.0969369 4.68468734 -19.5 4.5625 C-18.613125 4.52318359 -17.72625 4.48386719 -16.8125 4.44335938 C-11.49384873 4.18915913 -6.2743744 3.73323663 -1 3 C-0.67 2.01 -0.34 1.02 0 0 Z " fill="#57AFA8" transform="translate(293,460)"/>
<path d="M0 0 C8.42753678 6.67179995 14.54279276 14.79096278 20 24 C19.34 24.66 18.68 25.32 18 26 C14 20.375 14 20.375 14 17 C13.401875 16.95875 12.80375 16.9175 12.1875 16.875 C10 16 10 16 8.25 13.0625 C7 10 7 10 7 8 C6.38125 7.690625 5.7625 7.38125 5.125 7.0625 C3.75 6.375 2.375 5.6875 1 5 C0.375 2.4375 0.375 2.4375 0 0 Z " fill="#419184" transform="translate(283,181)"/>
<path d="M0 0 C2.70110459 2.50816855 4.74263947 5.31309015 6.875 8.3125 C9.77909883 12.35251941 12.74631677 16.23792877 16 20 C14.68 20 13.36 20 12 20 C11.67 19.01 11.34 18.02 11 17 C7.77208445 14.8480563 6.71599191 14.79913557 3 15 C3.0928125 13.7315625 3.0928125 13.7315625 3.1875 12.4375 C2.95972181 8.26156656 1.74341907 5.77740799 0 2 C0 1.34 0 0.68 0 0 Z " fill="#45AEA4" transform="translate(104,287)"/>
<path d="M0 0 C5.27000793 0.67564204 10.01185688 2.26246348 15 4 C16.98 4.66 18.96 5.32 21 6 C21 13.92 21 21.84 21 30 C20.67 30 20.34 30 20 30 C20 22.41 20 14.82 20 7 C17.69 6.67 15.38 6.34 13 6 C10.65789079 5.36485174 8.32315031 4.7013284 6 4 C4.66869885 3.65864073 3.33641852 3.32074044 2 3 C2 2.34 2 1.68 2 1 C1.34 0.67 0.68 0.34 0 0 Z " fill="#4EACA3" transform="translate(155,330)"/>
<path d="M0 0 C0.99 0.33 1.98 0.66 3 1 C3 1.66 3 2.32 3 3 C3.639375 3.2475 4.27875 3.495 4.9375 3.75 C7 5 7 5 7.75 7.125 C7.8325 7.74375 7.915 8.3625 8 9 C8.99 7.35 9.98 5.7 11 4 C11.66 4.33 12.32 4.66 13 5 C12.25 9.75 12.25 9.75 10 12 C10.33 12.66 10.66 13.32 11 14 C11.039992 15.99960012 11.04346799 18.00047242 11 20 C8.95642728 16.93464092 7.23957851 13.80946752 5.5 10.5625 C4.58734375 8.86287109 4.58734375 8.86287109 3.65625 7.12890625 C2.4054173 4.76589448 1.179 2.399265 0 0 Z " fill="#3E9387" transform="translate(386,204)"/>
<path d="M0 0 C0.5775 0.2475 1.155 0.495 1.75 0.75 C1.0075 1.471875 0.265 2.19375 -0.5 2.9375 C-3.21729113 5.57503098 -3.21729113 5.57503098 -5 8.1875 C-8.19245052 11.82334643 -12.04000615 14.38492623 -16.25 16.75 C-16.91 16.75 -17.57 16.75 -18.25 16.75 C-17.755 15.265 -17.755 15.265 -17.25 13.75 C-15.1875 13.0625 -15.1875 13.0625 -13.25 12.75 C-13.25 11.76 -13.25 10.77 -13.25 9.75 C-12.46625 9.688125 -11.6825 9.62625 -10.875 9.5625 C-9.575625 9.1603125 -9.575625 9.1603125 -8.25 8.75 C-7.12914688 6.4069191 -7.12914688 6.4069191 -6.25 3.75 C-3.02419355 -0.33602151 -3.02419355 -0.33602151 0 0 Z " fill="#319D8F" transform="translate(288.25,302.25)"/>
<path d="M0 0 C2.0625 1.75 2.0625 1.75 4 4 C3.75 6.25 3.75 6.25 3 8 C3.66 8 4.32 8 5 8 C5.28875 9.2375 5.5775 10.475 5.875 11.75 C6.61558084 14.7493524 7.57641838 17.25452116 9 20 C9 20.99 9 21.98 9 23 C9.66 23 10.32 23 11 23 C11.66 25.31 12.32 27.62 13 30 C12.34 30.33 11.68 30.66 11 31 C9.7233594 28.02328985 8.45479642 25.04319894 7.1875 22.0625 C6.83107422 21.23169922 6.47464844 20.40089844 6.10742188 19.54492188 C0 5.14485378 0 5.14485378 0 0 Z " fill="#50AAA3" transform="translate(42,313)"/>
<path d="M0 0 C7.60837466 2.07042054 14.7728592 4.85830477 22 8 C18.61915982 9.15782198 16.70336781 8.83835147 13.375 7.625 C12.59898437 7.34914063 11.82296875 7.07328125 11.0234375 6.7890625 C9 6 9 6 7 5 C6.67 5.66 6.34 6.32 6 7 C6 6.01 6 5.02 6 4 C4.35 4 2.7 4 1 4 C0.67 2.68 0.34 1.36 0 0 Z " fill="#46AEA4" transform="translate(320,39)"/>
<path d="M0 0 C0.33 0.66 0.66 1.32 1 2 C-0.78441718 4.65079048 -2.57872643 7.29473251 -4.375 9.9375 C-4.88289063 10.69224609 -5.39078125 11.44699219 -5.9140625 12.22460938 C-6.64882813 13.30258789 -6.64882813 13.30258789 -7.3984375 14.40234375 C-7.84880371 15.06741943 -8.29916992 15.73249512 -8.76318359 16.41772461 C-10 18 -10 18 -12 19 C-11.5289356 14.85463326 -11.0080208 12.0080208 -8 9 C-7.01 9 -6.02 9 -5 9 C-4.9175 7.88625 -4.835 6.7725 -4.75 5.625 C-4 2 -4 2 -1.9375 0.5625 C-1.298125 0.376875 -0.65875 0.19125 0 0 Z " fill="#48AFA4" transform="translate(438,362)"/>
<path d="M0 0 C0.33 0 0.66 0 1 0 C1.33675279 2.89547264 1.66951734 5.79131072 2 8.6875 C2.09539062 9.50412109 2.19078125 10.32074219 2.2890625 11.16210938 C2.73870522 15.12860052 3.13034543 19.00002463 3 23 C2.71125 22.360625 2.4225 21.72125 2.125 21.0625 C1.17176549 18.84793921 1.17176549 18.84793921 -1 18 C-1.144375 16.906875 -1.28875 15.81375 -1.4375 14.6875 C-1.99177938 11.05389072 -2.57074951 9.64048966 -5 7 C-4.01 6.67 -3.02 6.34 -2 6 C-2 6.66 -2 7.32 -2 8 C-1.34 8 -0.68 8 0 8 C0 5.36 0 2.72 0 0 Z " fill="#3FAFA5" transform="translate(93,243)"/>
<path d="M0 0 C4.455 0.99 4.455 0.99 9 2 C8.67 2.66 8.34 3.32 8 4 C8.66 4.66 9.32 5.32 10 6 C10 6.99 10 7.98 10 9 C10.928125 9.2165625 10.928125 9.2165625 11.875 9.4375 C14 10 14 10 16 11 C16.625 13.5625 16.625 13.5625 17 16 C10.70703278 11.62750234 5.15976209 6.67334952 0 1 C0 0.67 0 0.34 0 0 Z " fill="#49ACA2" transform="translate(93,400)"/>
<path d="M0 0 C0.33 0 0.66 0 1 0 C1.25048924 7.38943249 1.25048924 7.38943249 0 10.4375 C-1.48617217 14.2458162 -1.15847023 17.95900909 -1 22 C-3.32224304 17.66514632 -4.13471301 14.16048478 -4.0625 9.25 C-4.05347656 8.45078125 -4.04445312 7.6515625 -4.03515625 6.828125 C-4.02355469 6.22484375 -4.01195312 5.6215625 -4 5 C-3.34 4.67 -2.68 4.34 -2 4 C-0.86649466 1.98330173 -0.86649466 1.98330173 0 0 Z " fill="#42B4AB" transform="translate(39,276)"/>
<path d="M0 0 C-1.90973946 1.65450699 -3.8270261 3.29850015 -5.75 4.9375 C-6.28882813 5.40607422 -6.82765625 5.87464844 -7.3828125 6.35742188 C-12.37208686 10.58613612 -12.37208686 10.58613612 -16 11 C-16 9 -16 9 -14.1875 6.875 C-12 5 -12 5 -9 5 C-8.7525 4.195625 -8.505 3.39125 -8.25 2.5625 C-7 0 -7 0 -5.0625 -0.875 C-3 -1 -3 -1 0 0 Z " fill="#359C90" transform="translate(384,302)"/>
<path d="M0 0 C0.33 0 0.66 0 1 0 C1.36794346 9.23946907 0.7122718 18.43681841 -3 27 C-3.66 27 -4.32 27 -5 27 C-5.33 27.99 -5.66 28.98 -6 30 C-6.33 29.34 -6.66 28.68 -7 28 C-6.29221982 26.07973563 -5.50646447 24.18804399 -4.6875 22.3125 C-1.71596332 14.93318391 -0.73271235 7.90673178 0 0 Z " fill="#4A9389" transform="translate(400,251)"/>
<path d="M0 0 C4.30093205 1.29027962 8.12350522 2.99744756 12.0703125 5.09765625 C14.03136691 6.01466752 15.88836434 6.5448252 18 7 C18.33 8.32 18.66 9.64 19 11 C14.25652774 9.62309544 10.27474838 7.56160559 6.125 4.9375 C5.53203125 4.57333984 4.9390625 4.20917969 4.328125 3.83398438 C2.86464287 2.9218371 1.4292745 1.96486632 0 1 C0 0.67 0 0.34 0 0 Z " fill="#4CB0A5" transform="translate(132,432)"/>
<path d="M0 0 C0.99 0.66 1.98 1.32 3 2 C1.04653795 3.67268922 -0.91229814 5.33821581 -2.875 7 C-3.70837891 7.71542969 -3.70837891 7.71542969 -4.55859375 8.4453125 C-8.7734375 12 -8.7734375 12 -11 12 C-10.67 10.68 -10.34 9.36 -10 8 C-9.360625 7.896875 -8.72125 7.79375 -8.0625 7.6875 C-7.381875 7.460625 -6.70125 7.23375 -6 7 C-5.67 6.01 -5.34 5.02 -5 4 C-3.39192964 2.18218133 -2.1785148 1.0892574 0 0 Z " fill="#47AFA1" transform="translate(396,410)"/>
<path d="M0 0 C0.66 0 1.32 0 2 0 C0.1668733 5.99932374 -2.07321751 11.44920563 -5 17 C-5.33 17 -5.66 17 -6 17 C-6.28571429 9.57142857 -6.28571429 9.57142857 -4 6 C-3.34 6 -2.68 6 -2 6 C-1.34 4.02 -0.68 2.04 0 0 Z " fill="#3FB1A4" transform="translate(451,335)"/>
<path d="M0 0 C-1.51737413 4.24864756 -4.02954476 6.01477238 -8 8 C-10.84193966 8.03577982 -13.18858999 7.58167104 -16 7 C-16 6.67 -16 6.34 -16 6 C-13.03 6 -10.06 6 -7 6 C-6.87625 5.195625 -6.7525 4.39125 -6.625 3.5625 C-6.41875 2.716875 -6.2125 1.87125 -6 1 C-4 0 -4 0 0 0 Z " fill="#4CAFA6" transform="translate(162,283)"/>
<path d="M0 0 C2.46938403 3.70407605 3.45182375 7.32036359 4.6875 11.5625 C5.04424805 12.73329102 5.04424805 12.73329102 5.40820312 13.92773438 C7.12262357 19.75475285 7.12262357 19.75475285 6 22 C5.34 21.67 4.68 21.34 4 21 C3.47265625 18.70703125 3.47265625 18.70703125 3.0625 15.8125 C2.34341897 11.33564066 1.07037894 8.04216841 -1 4 C-0.6875 1.625 -0.6875 1.625 0 0 Z M-2 7 C0 8 0 8 0 8 Z " fill="#45ABA2" transform="translate(459,176)"/>
<path d="M0 0 C0 0.33 0 0.66 0 1 C2.64 1.33 5.28 1.66 8 2 C8 2.33 8 2.66 8 3 C-0.58 3.33 -9.16 3.66 -18 4 C-18 3.67 -18 3.34 -18 3 C-15.93918639 2.49309416 -13.87626474 1.99475381 -11.8125 1.5 C-10.66394531 1.2215625 -9.51539063 0.943125 -8.33203125 0.65625 C-5.43181171 0.08504615 -2.93903615 -0.13283779 0 0 Z " fill="#499F93" transform="translate(197,155)"/>
<path d="M0 0 C-1.32 0.33 -2.64 0.66 -4 1 C-4 1.66 -4 2.32 -4 3 C-5.98 3.99 -5.98 3.99 -8 5 C-8 4.34 -8 3.68 -8 3 C-10.57619276 4.91315119 -10.98395232 5.9016314 -11.51171875 9.13671875 C-11.56972656 10.30847656 -11.62773437 11.48023438 -11.6875 12.6875 C-11.75324219 13.86699219 -11.81898438 15.04648437 -11.88671875 16.26171875 C-11.92410156 17.16535156 -11.96148437 18.06898438 -12 19 C-12.33 19 -12.66 19 -13 19 C-13 13.72 -13 8.44 -13 3 C-2.25 -1.125 -2.25 -1.125 0 0 Z " fill="#45948A" transform="translate(347,322)"/>
<path d="M0 0 C0.66 0 1.32 0 2 0 C0.83795007 6.54849313 -0.73383385 12.74538144 -3 19 C-3.33 19 -3.66 19 -4 19 C-4.05416188 17.39620659 -4.09286638 15.79188594 -4.125 14.1875 C-4.14820313 13.29417969 -4.17140625 12.40085937 -4.1953125 11.48046875 C-4 9 -4 9 -2 6 C-1.34 6 -0.68 6 0 6 C0 4.02 0 2.04 0 0 Z " fill="#4AABA2" transform="translate(463,301)"/>
<path d="M0 0 C2.3125 -0.1875 2.3125 -0.1875 5 0 C6.6875 1.4375 6.6875 1.4375 8 3 C8.66 3.33 9.32 3.66 10 4 C10.40729228 6.32156597 10.74438677 8.6568787 11 11 C6.86378916 7.6189962 3.18683431 4.33409466 0 0 Z " fill="#3D9587" transform="translate(373,190)"/>
<path d="M0 0 C-0.61488281 0.47050781 -1.22976562 0.94101563 -1.86328125 1.42578125 C-2.67152344 2.04839844 -3.47976562 2.67101562 -4.3125 3.3125 C-5.11300781 3.92738281 -5.91351563 4.54226562 -6.73828125 5.17578125 C-8.9757112 6.9028046 -8.9757112 6.9028046 -10.66796875 8.73046875 C-12 10 -12 10 -14 10 C-14 9.01 -14 8.02 -14 7 C-13.01 7 -12.02 7 -11 7 C-10.896875 6.401875 -10.79375 5.80375 -10.6875 5.1875 C-9.8858616 2.63683235 -9.09967436 1.63308005 -7 0 C-3.98519175 -1.13055309 -3.16829698 -1.05609899 0 0 Z " fill="#4AAEA1" transform="translate(134,178)"/>
<path d="M0 0 C-0.24741406 3.34008987 -1.2550951 4.2550951 -3.6875 6.6875 C-6.65450041 9.02949064 -9.19613588 9.72829542 -13 10 C-3.28571429 0 -3.28571429 0 0 0 Z " fill="#4BACA3" transform="translate(117,75)"/>
<path d="M0 0 C1.41655793 -0.0272415 2.83327045 -0.04650467 4.25 -0.0625 C5.43335938 -0.07990234 5.43335938 -0.07990234 6.640625 -0.09765625 C8.91923912 -0.00334275 10.80344714 0.42640624 13 1 C17.65700973 1.30560062 17.65700973 1.30560062 22 0 C22.33 1.32 22.66 2.64 23 4 C20.29144546 3.6893306 17.58316612 3.37652255 14.875 3.0625 C13.73417969 2.93198242 13.73417969 2.93198242 12.5703125 2.79882812 C8.35670423 2.3084513 4.178805 1.74097022 0 1 C0 0.67 0 0.34 0 0 Z " fill="#429A86" transform="translate(199,156)"/>
<path d="M0 0 C-2.68287823 3.47196006 -5.82289183 4.0949599 -10 5 C-12.33215844 5.07403678 -14.66860788 5.09515886 -17 5 C-13.86875441 3.36017707 -10.6857317 2.04844701 -7.375 0.8125 C-6.41335937 0.44769531 -5.45171875 0.08289063 -4.4609375 -0.29296875 C-2 -1 -2 -1 0 0 Z " fill="#47A89D" transform="translate(246,330)"/>
<path d="M0 0 C2.44336977 1.75617202 3.83210694 3.12017578 4.40625 6.12890625 C4.56688537 10.19164241 4.55839295 12.28455904 2 15.5625 C1.34 16.036875 0.68 16.51125 0 17 C0 16.01 0 15.02 0 14 C0.66 14 1.32 14 2 14 C1.85866501 12.22880197 1.71176792 10.45804713 1.5625 8.6875 C1.48128906 7.70136719 1.40007812 6.71523438 1.31640625 5.69921875 C1.08187441 2.90624401 1.08187441 2.90624401 0 0 Z " fill="#51ABA3" transform="translate(255,270)"/>
<path d="M0 0 C0.99 1.32 1.98 2.64 3 4 C2.01 4.33 1.02 4.66 0 5 C0.020625 5.9075 0.04125 6.815 0.0625 7.75 C0.0110245 10.42672588 -0.2215017 12.46988052 -1 15 C-1.66 15 -2.32 15 -3 15 C-3.33 15.66 -3.66 16.32 -4 17 C-3.35729017 11.0870696 -1.80996216 5.65755469 0 0 Z " fill="#4BA8A0" transform="translate(43,176)"/>
<path d="M0 0 C3.85546463 -0.07414355 7.29263803 -0.09847762 11 1 C11.66 1 12.32 1 13 1 C13 1.99 13 2.98 13 4 C13.99 4.33 14.98 4.66 16 5 C10.34979382 4.39891424 5.33835539 2.92471317 0 1 C0 0.67 0 0.34 0 0 Z " fill="#4BB2A7" transform="translate(179,455)"/>
<path d="M0 0 C3.96 1.98 7.92 3.96 12 6 C11.01 6.33 10.02 6.66 9 7 C9 7.66 9 8.32 9 9 C7.68 8.34 6.36 7.68 5 7 C5.33 6.01 5.66 5.02 6 4 C3.03 3.505 3.03 3.505 0 3 C0 2.01 0 1.02 0 0 Z " fill="#4AAEA6" transform="translate(310,332)"/>
<path d="M0 0 C1.15327619 3.45982856 1.29080246 4.61164355 0 8 C-2.18131151 9.91976336 -4.52628033 11.48218245 -7 13 C-7.66 12.67 -8.32 12.34 -9 12 C-8.60167969 11.55269531 -8.20335937 11.10539062 -7.79296875 10.64453125 C-4.82015875 7.25220061 -2.1717806 3.98159776 0 0 Z " fill="#45968A" transform="translate(294,288)"/>
<path d="M0 0 C0 3.31439938 -0.16781344 4.2915503 -2 7 C-4.24096344 8.81140232 -6.58768867 10.42619261 -9 12 C-9.66 11.67 -10.32 11.34 -11 11 C-7.37 7.37 -3.74 3.74 0 0 Z " fill="#4BACA0" transform="translate(103,85)"/>
<path d="M0 0 C9.41002278 -0.18451025 9.41002278 -0.18451025 14 1 C14 1.33 14 1.66 14 2 C11.03 1.67 8.06 1.34 5 1 C4.67 2.32 4.34 3.64 4 5 C3.01 4.67 2.02 4.34 1 4 C0.3125 1.9375 0.3125 1.9375 0 0 Z " fill="#36A296" transform="translate(221,156)"/>
<path d="M0 0 C8.44646925 6.15034169 8.44646925 6.15034169 12 10 C7.9747211 8.78305522 4.35138383 7.58535324 1 5 C0.1875 2.3125 0.1875 2.3125 0 0 Z " fill="#48AA9E" transform="translate(122,309)"/>
<path d="M0 0 C0.99 0.99 1.98 1.98 3 3 C2.01 3.495 2.01 3.495 1 4 C1.27034634 6.43717258 1.27034634 6.43717258 2 9 C2.99 9.66 3.98 10.32 5 11 C5 11.66 5 12.32 5 13 C3.125 12.8125 3.125 12.8125 1 12 C-1.53629129 7.89362363 -0.901316 4.59671159 0 0 Z " fill="#52AFA2" transform="translate(236,274)"/>
<path d="M0 0 C8.81299886 -0.44811859 8.81299886 -0.44811859 13 3 C13.70529555 4.31330895 14.37850227 5.64502296 15 7 C14.50371094 6.73445313 14.00742188 6.46890625 13.49609375 6.1953125 C9.05021478 3.88379288 4.86099676 2.21524919 0 1 C0 0.67 0 0.34 0 0 Z " fill="#4AA79C" transform="translate(147,267)"/>
<path d="M0 0 C1.32 0 2.64 0 4 0 C5.5625 2.375 5.5625 2.375 7 5 C7.99 5.66 8.98 6.32 10 7 C10 7.66 10 8.32 10 9 C7.27425729 8.62669176 6.19177915 8.20805399 4.296875 6.15234375 C3.53117187 5.05599609 3.53117187 5.05599609 2.75 3.9375 C2.22921875 3.20402344 1.7084375 2.47054688 1.171875 1.71484375 C0.78515625 1.14894531 0.3984375 0.58304687 0 0 Z " fill="#47AEA3" transform="translate(84,390)"/>
<path d="M0 0 C0.86882812 0.20496094 1.73765625 0.40992188 2.6328125 0.62109375 C3.78523438 0.89050781 4.93765625 1.15992188 6.125 1.4375 C7.26195312 1.70433594 8.39890625 1.97117187 9.5703125 2.24609375 C12.70461304 2.9350687 15.83017726 3.50381194 19 4 C19 4.33 19 4.66 19 5 C14.05 5 9.1 5 4 5 C3.67 4.01 3.34 3.02 3 2 C2.01 2 1.02 2 0 2 C0 1.34 0 0.68 0 0 Z " fill="#4EAAA0" transform="translate(272,323)"/>
<path d="M0 0 C2.33944736 0.28730055 4.6739143 0.61936779 7 1 C1.84335444 3.76248869 -2.12905966 4.1129027 -8 4 C-8.33 3.34 -8.66 2.68 -9 2 C-6.94921875 1.77213542 -4.8984375 1.54427083 -2.84765625 1.31640625 C-0.98859771 1.18113386 -0.98859771 1.18113386 0 0 Z " fill="#45AC9E" transform="translate(276,168)"/>
<path d="M0 0 C2.34917898 2.15341406 3.82443004 4.21667937 5.25 7.0625 C5.60578125 7.75472656 5.9615625 8.44695312 6.328125 9.16015625 C6.54984375 9.76730469 6.7715625 10.37445313 7 11 C6.67 11.66 6.34 12.32 6 13 C4.98868775 11.59138651 3.99133233 10.17274547 3 8.75 C2.1646875 7.56664062 2.1646875 7.56664062 1.3125 6.359375 C0 4 0 4 0 0 Z " fill="#4BA6A1" transform="translate(442,139)"/>
<path d="M0 0 C0.33 0 0.66 0 1 0 C1.33 4.62 1.66 9.24 2 14 C1.34 12.68 0.68 11.36 0 10 C-0.66 9.67 -1.32 9.34 -2 9 C-2.20140476 5.37471432 -1.85776765 3.13498292 0 0 Z " fill="#4EA9A1" transform="translate(94,252)"/>
<path d="M0 0 C0.99 0.495 0.99 0.495 2 1 C2 1.66 2 2.32 2 3 C3.2065625 3.433125 3.2065625 3.433125 4.4375 3.875 C7 5 7 5 8 7 C7.67 7.66 7.34 8.32 7 9 C3.17475764 7.549046 1.80909034 5.61818068 0 2 C0 1.34 0 0.68 0 0 Z " fill="#46AEA3" transform="translate(63,360)"/>
<path d="M0 0 C-0.99 0.33 -1.98 0.66 -3 1 C-3 1.66 -3 2.32 -3 3 C-5.3125 3.625 -5.3125 3.625 -8 4 C-8.99 3.34 -9.98 2.68 -11 2 C-9.54494642 1.47007308 -8.08581873 0.9513211 -6.625 0.4375 C-5.81289062 0.14746094 -5.00078125 -0.14257812 -4.1640625 -0.44140625 C-2 -1 -2 -1 0 0 Z " fill="#3A9C92" transform="translate(191,356)"/>
<path d="M0 0 C1.77131561 0.30975468 3.54203778 0.62290425 5.3125 0.9375 C6.79169922 1.19853516 6.79169922 1.19853516 8.30078125 1.46484375 C11 2 11 2 14 3 C14 3.66 14 4.32 14 5 C8.72250715 4.46148032 4.74354436 3.22656164 0 1 C0 0.67 0 0.34 0 0 Z " fill="#48AB9F" transform="translate(294,32)"/>
<path d="M0 0 C0.66 0 1.32 0 2 0 C2.36504603 1.58086048 2.71660506 3.16483907 3.0625 4.75 C3.25972656 5.63171875 3.45695312 6.5134375 3.66015625 7.421875 C3.99825872 9.98679028 3.81158635 11.57091639 3 14 C2.49307308 12.4188708 1.99473557 10.83498617 1.5 9.25 C1.2215625 8.36828125 0.943125 7.4865625 0.65625 6.578125 C0 4 0 4 0 0 Z " fill="#50AAA1" transform="translate(38,299)"/>
<path d="M0 0 C3.79749234 0.08975891 6.15076143 0.9199181 9.1875 3.3125 C9.5175 3.9725 9.8475 4.6325 10.1875 5.3125 C8.8675 5.3125 7.5475 5.3125 6.1875 5.3125 C6.1875 4.3225 6.1875 3.3325 6.1875 2.3125 C2.2275 2.3125 -1.7325 2.3125 -5.8125 2.3125 C-3.8125 0.3125 -3.8125 0.3125 0 0 Z " fill="#52A7A0" transform="translate(198.8125,266.6875)"/>
<path d="M0 0 C1.49080078 0.02707031 1.49080078 0.02707031 3.01171875 0.0546875 C3.77097656 0.07789063 4.53023437 0.10109375 5.3125 0.125 C5.3125 0.455 5.3125 0.785 5.3125 1.125 C-4.09752278 3.60563781 -4.09752278 3.60563781 -8.6875 2.125 C-5.26655758 -0.15562828 -4.00562778 -0.09425007 0 0 Z " fill="#4EB0A4" transform="translate(173.6875,158.875)"/>
<path d="M0 0 C3.3 0 6.6 0 10 0 C5.5 3.375 5.5 3.375 2 4 C2 3.34 2 2.68 2 2 C1.34 2 0.68 2 0 2 C0 1.34 0 0.68 0 0 Z " fill="#4CB0A7" transform="translate(340,444)"/>
<path d="M0 0 C-2.9432656 1.96217707 -5.75978738 3.58240698 -9 5 C-9.99 4.67 -10.98 4.34 -12 4 C-7.81413519 0.81076967 -5.29441695 -0.50423019 0 0 Z " fill="#3C9D91" transform="translate(257,326)"/>
<path d="M0 0 C0.66 0.33 1.32 0.66 2 1 C0.7934375 2.11375 0.7934375 2.11375 -0.4375 3.25 C-2.76988591 5.75304829 -3.63534394 6.7180955 -4 10 C-5.32 9.67 -6.64 9.34 -8 9 C-7.34 8.67 -6.68 8.34 -6 8 C-5.71125 7.401875 -5.4225 6.80375 -5.125 6.1875 C-3.80034915 3.61179002 -2.10584139 1.96545196 0 0 Z " fill="#3CADA1" transform="translate(287,305)"/>
<path d="M0 0 C3.26008643 3.16952847 6.22237877 6.39937989 9 10 C7.68 10 6.36 10 5 10 C4.67 9.01 4.34 8.02 4 7 C3.01 6.34 2.02 5.68 1 5 C0.3125 2.375 0.3125 2.375 0 0 Z " fill="#51A79F" transform="translate(111,297)"/>
<path d="M0 0 C1.9451 2.91765 2.45276317 4.62537285 3 8 C3.99 8.33 4.98 8.66 6 9 C6 9.99 6 10.98 6 12 C3 11 3 11 1.3125 8.25 C0.06049331 5.14979295 -0.28970125 3.28328088 0 0 Z " fill="#52ACA3" transform="translate(139,276)"/>
<path d="M0 0 C-2 2 -2 2 -5.5 2.25 C-9 2 -9 2 -11 0 C-7.18243176 -1.37432457 -3.92744671 -0.67975039 0 0 Z " fill="#41A599" transform="translate(301,166)"/>
<path d="M0 0 C0 1.65 0 3.3 0 5 C-1.1446875 4.9071875 -1.1446875 4.9071875 -2.3125 4.8125 C-5.04525312 4.74101915 -5.04525312 4.74101915 -6.8125 6.5 C-7.4003125 7.2425 -7.4003125 7.2425 -8 8 C-8.66 7.67 -9.32 7.34 -10 7 C-8.87720538 6.01830524 -7.75168527 5.03972702 -6.625 4.0625 C-5.68527344 3.24458984 -5.68527344 3.24458984 -4.7265625 2.41015625 C-1.77562327 0 -1.77562327 0 0 0 Z " fill="#50AAA5" transform="translate(127,67)"/>
<path d="M0 0 C6.75 0.75 6.75 0.75 9 3 C6.69 3.33 4.38 3.66 2 4 C1.34 2.68 0.68 1.36 0 0 Z " fill="#48ADA7" transform="translate(301,329)"/>
<path d="M0 0 C4.29 0 8.58 0 13 0 C9 3 9 3 6.89453125 3.14453125 C4.9179679 2.82931946 2.95757875 2.41718891 1 2 C0.67 1.34 0.34 0.68 0 0 Z " fill="#53B0A6" transform="translate(241,288)"/>
<path d="M0 0 C4.83256305 0.41421969 6.82679218 2.46413986 10 6 C8.02 6 6.04 6 4 6 C3.67 5.01 3.34 4.02 3 3 C1.50014391 1.33289654 1.50014391 1.33289654 0 0 Z " fill="#369185" transform="translate(273,175)"/>
<path d="M0 0 C0.66 0.33 1.32 0.66 2 1 C1.375 2.875 1.375 2.875 0 5 C-3.125 6.25 -3.125 6.25 -6 7 C-4.02 4.69 -2.04 2.38 0 0 Z " fill="#45AEA4" transform="translate(88,101)"/>
<path d="M0 0 C0.66 0.33 1.32 0.66 2 1 C1.21572648 2.64936913 0.42234741 4.29441127 -0.375 5.9375 C-0.81585938 6.85402344 -1.25671875 7.77054687 -1.7109375 8.71484375 C-3 11 -3 11 -5 12 C-3.68938409 7.76570244 -2.05643741 3.92592596 0 0 Z " fill="#51A297" transform="translate(305,282)"/>
<path d="M0 0 C0.66 1.32 1.32 2.64 2 4 C2.99 4 3.98 4 5 4 C4.34 5.32 3.68 6.64 3 8 C2.01 8 1.02 8 0 8 C0 5.36 0 2.72 0 0 Z " fill="#2FA394" transform="translate(390,284)"/>
<path d="M0 0 C0.99 0.495 0.99 0.495 2 1 C2.72888424 5.37330544 3.13869913 9.5616278 3 14 C1.20724134 10.88089144 0.65709282 8.32317572 0.375 4.75 C0.30023438 3.85796875 0.22546875 2.9659375 0.1484375 2.046875 C0.09945312 1.37140625 0.05046875 0.6959375 0 0 Z " fill="#52ABA8" transform="translate(35,284)"/>
<path d="M0 0 C1.1725131 0.95117134 2.33787015 1.91117009 3.5 2.875 C4.47453125 3.67550781 4.47453125 3.67550781 5.46875 4.4921875 C5.9740625 4.98976563 6.479375 5.48734375 7 6 C7 6.66 7 7.32 7 8 C5 7 3 6 1 5 C1 4.01 1 3.02 1 2 C0.34 1.67 -0.32 1.34 -1 1 C-0.67 0.67 -0.34 0.34 0 0 Z " fill="#4CA69E" transform="translate(410,96)"/>
<path d="M0 0 C2.64 0.33 5.28 0.66 8 1 C8.33 2.32 8.66 3.64 9 5 C5.54074837 3.7508258 2.85306797 2.32472205 0 0 Z " fill="#449385" transform="translate(252,169)"/>
<path d="M0 0 C1.98 1.65 3.96 3.3 6 5 C4.1875 5.6875 4.1875 5.6875 2 6 C0.25 4.5625 0.25 4.5625 -1 3 C-0.67 2.01 -0.34 1.02 0 0 Z " fill="#47ADA2" transform="translate(404,90)"/>
<path d="M0 0 C0 3 0 3 -2 5.1875 C-2.66 5.785625 -3.32 6.38375 -4 7 C-4.99 6.01 -5.98 5.02 -7 4 C-4.69 2.68 -2.38 1.36 0 0 Z " fill="#3CB0A4" transform="translate(210,344)"/>
<path d="M0 0 C0.66 0.33 1.32 0.66 2 1 C0.68 3.64 -0.64 6.28 -2 9 C-2.33 9 -2.66 9 -3 9 C-3 6.69 -3 4.38 -3 2 C-2.01 2 -1.02 2 0 2 C0 1.34 0 0.68 0 0 Z " fill="#4CAEA3" transform="translate(448,343)"/>
<path d="M0 0 C-1.39332574 3.36720387 -2.9789286 4.9859524 -6 7 C-6 5.68 -6 4.36 -6 3 C-2.78571429 0 -2.78571429 0 0 0 Z " fill="#55ABA1" transform="translate(416,393)"/>
<path d="M0 0 C-0.33 1.65 -0.66 3.3 -1 5 C-2.32 4.67 -3.64 4.34 -5 4 C-5 3.01 -5 2.02 -5 1 C-2 0 -2 0 0 0 Z " fill="#37B9B3" transform="translate(445,351)"/>
<path d="M0 0 C0.66 0 1.32 0 2 0 C2.33 0.99 2.66 1.98 3 3 C2.34 3.66 1.68 4.32 1 5 C1 5.99 1 6.98 1 8 C0.01 7.01 -0.98 6.02 -2 5 C-1.34 3.35 -0.68 1.7 0 0 Z " fill="#2B9D89" transform="translate(288,189)"/>
<path d="M0 0 C2.31 0.33 4.62 0.66 7 1 C6.67 1.99 6.34 2.98 6 4 C4.35 3.67 2.7 3.34 1 3 C0.67 2.01 0.34 1.02 0 0 Z " fill="#38A397" transform="translate(235,158)"/>
<path d="M0 0 C1.65 1.65 3.3 3.3 5 5 C4.67 5.66 4.34 6.32 4 7 C3.01 7 2.02 7 1 7 C-0.0625 4.625 -0.0625 4.625 -1 2 C-0.67 1.34 -0.34 0.68 0 0 Z " fill="#46A79C" transform="translate(427,116)"/>
<path d="M0 0 C0.66 0.33 1.32 0.66 2 1 C0.35 2.65 -1.3 4.3 -3 6 C-3.99 5.67 -4.98 5.34 -6 5 C-5.195625 4.360625 -4.39125 3.72125 -3.5625 3.0625 C-1.7249496 1.59396498 -1.7249496 1.59396498 0 0 Z " fill="#4EA6A3" transform="translate(133,62)"/>
<path d="M0 0 C0.66 0.33 1.32 0.66 2 1 C1.67 1.66 1.34 2.32 1 3 C2.32 3.66 3.64 4.32 5 5 C4.01 5.495 4.01 5.495 3 6 C0.96855359 5.06553465 -1.03533587 4.06775224 -3 3 C-2.01 2.01 -1.02 1.02 0 0 Z " fill="#4FB1A5" transform="translate(154,441)"/>
<path d="M0 0 C-3.465 2.97 -3.465 2.97 -7 6 C-6.75 3.625 -6.75 3.625 -6 1 C-2.69333333 -1.34666667 -2.69333333 -1.34666667 0 0 Z " fill="#50B0A4" transform="translate(407,404)"/>
<path d="M0 0 C0.99 0.33 1.98 0.66 3 1 C2.45276317 4.37462715 1.9451 6.08235 0 9 C-1.125 3.375 -1.125 3.375 0 0 Z " fill="#43ABA6" transform="translate(469,250)"/>
<path d="M0 0 C2.475 0.495 2.475 0.495 5 1 C5.33 1.99 5.66 2.98 6 4 C4.35 4 2.7 4 1 4 C0.67 2.68 0.34 1.36 0 0 Z " fill="#31998B" transform="translate(232,158)"/>
<path d="M0 0 C4.95 0.99 4.95 0.99 10 2 C5.99998285 3.00000429 3.94476647 2.80688405 0 2 C0 1.34 0 0.68 0 0 Z " fill="#42AA9D" transform="translate(309,36)"/>
</svg>